<mxfile host="app.diagrams.net" agent="Mozilla/5.0 (Windows NT 10.0; Win64; x64; rv:131.0) Gecko/20100101 Firefox/131.0" version="25.0.1">
  <diagram name="第 1 页" id="B9oXJ5RTb5E7wIOnUHVM">
    <mxGraphModel dx="1674" dy="754" grid="0" gridSize="10" guides="1" tooltips="1" connect="1" arrows="1" fold="1" page="1" pageScale="1" pageWidth="850" pageHeight="1100" math="1" shadow="0">
      <root>
        <mxCell id="0" />
        <mxCell id="1" parent="0" />
        <mxCell id="_R61TyaY5iQKn6zh8l7m-8" style="edgeStyle=orthogonalEdgeStyle;rounded=0;orthogonalLoop=1;jettySize=auto;html=1;exitX=1;exitY=0.5;exitDx=0;exitDy=0;entryX=0;entryY=0.5;entryDx=0;entryDy=0;" edge="1" parent="1" source="1M5ZTfPFez3uCNDzxGdN-1" target="_R61TyaY5iQKn6zh8l7m-7">
          <mxGeometry relative="1" as="geometry" />
        </mxCell>
        <mxCell id="1M5ZTfPFez3uCNDzxGdN-1" value="\[&lt;br style=&quot;font-size: 16px;&quot;&gt;\begin{bmatrix}&lt;br style=&quot;font-size: 16px;&quot;&gt;a &amp;amp; b &amp;amp;... &amp;amp; c \\&lt;br style=&quot;font-size: 16px;&quot;&gt;d &amp;amp; e &amp;amp; ...&amp;amp; f \\&lt;br style=&quot;font-size: 16px;&quot;&gt;g &amp;amp; h &amp;amp;...&amp;amp; i&lt;br style=&quot;font-size: 16px;&quot;&gt;\end{bmatrix}&lt;br style=&quot;font-size: 16px;&quot;&gt;\]&lt;div style=&quot;font-size: 16px;&quot;&gt;&lt;br style=&quot;font-size: 16px;&quot;&gt;&lt;/div&gt;" style="text;html=1;align=center;verticalAlign=middle;whiteSpace=wrap;rounded=0;labelBackgroundColor=none;fontColor=#393C56;fontSize=16;" parent="1" vertex="1">
          <mxGeometry x="169" y="223" width="138" height="96" as="geometry" />
        </mxCell>
        <mxCell id="1M5ZTfPFez3uCNDzxGdN-7" value="$$ \sqrt{x}$$" style="text;html=1;align=center;verticalAlign=middle;whiteSpace=wrap;rounded=0;" parent="1" vertex="1">
          <mxGeometry x="505" y="477" width="251" height="157" as="geometry" />
        </mxCell>
        <mxCell id="_R61TyaY5iQKn6zh8l7m-5" value="$$\langle64,16\rangle$$" style="text;html=1;align=center;verticalAlign=middle;whiteSpace=wrap;rounded=0;" vertex="1" parent="1">
          <mxGeometry x="201" y="186" width="60" height="30" as="geometry" />
        </mxCell>
        <mxCell id="_R61TyaY5iQKn6zh8l7m-7" value="\[&lt;br&gt;\begin{bmatrix}&lt;br&gt;0&amp;amp; b &amp;amp; c \\&lt;br&gt;0 &amp;amp; 0&amp;amp; e \\&lt;br&gt;0 &amp;amp; 0 &amp;amp; 0&lt;br&gt;\end{bmatrix}&lt;br&gt;\]&lt;div&gt;&lt;br&gt;&lt;/div&gt;" style="text;html=1;align=center;verticalAlign=middle;whiteSpace=wrap;rounded=0;labelBackgroundColor=none;fontColor=#393C56;fontSize=16;" vertex="1" parent="1">
          <mxGeometry x="358" y="223" width="138" height="96" as="geometry" />
        </mxCell>
        <mxCell id="_R61TyaY5iQKn6zh8l7m-9" value="$$\langle16,16\rangle$$" style="text;html=1;align=center;verticalAlign=middle;whiteSpace=wrap;rounded=0;" vertex="1" parent="1">
          <mxGeometry x="395" y="190" width="60" height="30" as="geometry" />
        </mxCell>
      </root>
    </mxGraphModel>
  </diagram>
</mxfile>
